<?xml version="1.0" encoding="iso-8859-1"?>
<!-- Generator: Adobe Illustrator 18.1.1, SVG Export Plug-In . SVG Version: 6.00 Build 0)  -->
<svg version="1.1" id="Capa_1" xmlns="http://www.w3.org/2000/svg" xmlns:xlink="http://www.w3.org/1999/xlink" x="0px" y="0px"
	 viewBox="0 0 278.408 278.408" style="enable-background:new 0 0 278.408 278.408;" xml:space="preserve">
<g>
	<path id="_233954448_1_" style="fill:#030104;" d="M224.146,0.229c12.618,1.155,24.078,6.32,33.096,14.206l-33.096,33.096V0.229z
		 M217.779,47.543l-35.095-35.094C192.376,4.841,204.547,0.218,217.779,0V47.543z M261.806,18.877
		c8.223,8.933,13.688,20.431,15.062,33.156H228.65L261.806,18.877z M277.203,58.402v0.012c0,13.617-4.659,26.161-12.461,36.093
		l-36.104-36.105H277.203L277.203,58.402z M260.529,99.299c-9.439,9.631-22.176,16.012-36.383,17.3V62.916L260.529,99.299z
		 M213.265,58.414h-52.913v-0.012h52.925L213.265,58.414L213.265,58.414z M160.701,52.034c1.492-13.81,7.789-26.162,17.191-35.371
		l35.372,35.371H160.701z"/>
	<path style="fill:#030104;" d="M117.094,259.694v-74.911l96.095-121.358L1.204,63.429L97.03,184.783v74.929
		c-10.702,2.391-20.84,8.623-28.634,18.696h77.576C138.084,268.291,127.863,262.06,117.094,259.694z M101.448,179.595l-52.73-68.624
		l116.122-0.002l-52.736,68.635L101.448,179.595z"/>
	<polygon style="fill:#030104;" points="1.204,63.429 1.204,63.429 1.204,63.428 	"/>
</g>
<g>
</g>
<g>
</g>
<g>
</g>
<g>
</g>
<g>
</g>
<g>
</g>
<g>
</g>
<g>
</g>
<g>
</g>
<g>
</g>
<g>
</g>
<g>
</g>
<g>
</g>
<g>
</g>
<g>
</g>
</svg>
